<svg width="200" height="200" viewBox="0 0 200 200" fill="none" xmlns="http://www.w3.org/2000/svg">
<path d="M19 103.676C19 100.541 21.5417 98 24.677 98H175.323C178.458 98 181 100.541 181 103.676V138.867C181 148.325 173.32 156 163.854 156H36.1457C26.6806 156 19 148.325 19 138.867V103.676Z" stroke="black" stroke-opacity="0.85" stroke-width="0.445205"/>
<path d="M74.9802 77.7325H74.7037C72.814 77.7325 71.284 76.194 71.284 74.2941C71.284 72.1533 69.7446 70.235 67.6246 70.0218C65.2004 69.7716 63.1264 71.7086 63.1264 74.0995V74.2941C63.1264 76.194 61.5963 77.7325 59.7067 77.7325H55.8261C53.4204 77.7325 51.2635 79.484 51.0238 81.8936C50.7473 84.6553 52.9134 87 55.6049 87H78.3951C81.0866 87 83.2527 84.6461 82.9762 81.8936C82.7365 79.4932 80.5796 77.7325 78.1739 77.7325H74.9802Z" fill="black" fill-opacity="0.85"/>
<path d="M78.6378 78H77.3622C74.953 78 73 80.0147 73 82.5C73 84.9853 74.953 87 77.3622 87H78.6378C81.047 87 83 84.9853 83 82.5C83 80.0147 81.047 78 78.6378 78Z" fill="#C4C4C4"/>
<path fill-rule="evenodd" clip-rule="evenodd" d="M77.3813 78.309C75.1275 78.309 73.3007 80.1854 73.3007 82.4999C73.3007 84.8145 75.1275 86.691 77.3813 86.691H78.6187C80.8724 86.691 82.6993 84.8145 82.6993 82.4999C82.6993 80.1854 80.8724 78.309 78.6187 78.309H77.3813ZM73 82.4999C73 80.0146 74.9617 78 77.3813 78H78.6187C81.0383 78 83 80.0146 83 82.4999C83 84.9853 81.0383 87 78.6187 87H77.3813C74.9617 87 73 84.9853 73 82.4999Z" fill="black" fill-opacity="0.85"/>
<path d="M80 82.5C80 81.6716 79.3284 81 78.5 81C77.6716 81 77 81.6716 77 82.5C77 83.3284 77.6716 84 78.5 84C79.3284 84 80 83.3284 80 82.5Z" fill="black" fill-opacity="0.85"/>
<path fill-rule="evenodd" clip-rule="evenodd" d="M78.5 80.3045C77.7976 80.3045 77.2282 81.0636 77.2282 81.9999C77.2282 82.9363 77.7976 83.6955 78.5 83.6955C79.2024 83.6955 79.7718 82.9363 79.7718 81.9999C79.7718 81.0636 79.2024 80.3045 78.5 80.3045ZM77 81.9999C77 80.8953 77.6717 80 78.5 80C79.3284 80 80 80.8953 80 81.9999C80 83.1046 79.3284 84 78.5 84C77.6717 84 77 83.1046 77 81.9999Z" fill="#C4C4C4"/>
<path d="M99.9544 145H97.1636C87.1331 145 79 136.542 79 126.111V82L112.113 112.068C124.274 123.471 116.309 145 99.9544 145Z" fill="#F5F5F5"/>
<path fill-rule="evenodd" clip-rule="evenodd" d="M78 82L111.955 112.055L111.956 112.056L111.957 112.056C124.439 123.466 116.266 145 99.4794 145H96.6403C86.3467 145 78 136.539 78 126.104V82ZM78.3256 82.7264V126.104C78.3256 136.356 86.5263 144.67 96.6403 144.67H99.4794C115.968 144.67 123.999 123.508 111.739 112.302L78.3256 82.7264Z" fill="black" fill-opacity="0.85"/>
<path fill-rule="evenodd" clip-rule="evenodd" d="M104 138V113H105V138H104Z" fill="black" fill-opacity="0.85"/>
<path fill-rule="evenodd" clip-rule="evenodd" d="M68 145V139H69V145H68Z" fill="#C4C4C4"/>
<path fill-rule="evenodd" clip-rule="evenodd" d="M151 132V124H152V132H151Z" fill="#C4C4C4"/>
<path fill-rule="evenodd" clip-rule="evenodd" d="M155 129H148V128H155V129Z" fill="#C4C4C4"/>
<path fill-rule="evenodd" clip-rule="evenodd" d="M133 134V127H134V134H133Z" fill="#C4C4C4"/>
<path fill-rule="evenodd" clip-rule="evenodd" d="M151 114V106H152V114H151Z" fill="#C4C4C4"/>
<path fill-rule="evenodd" clip-rule="evenodd" d="M155 110H147V109H155V110Z" fill="#C4C4C4"/>
<path fill-rule="evenodd" clip-rule="evenodd" d="M143 70V64H144V70H143Z" fill="#C4C4C4"/>
<path fill-rule="evenodd" clip-rule="evenodd" d="M155 91H148V90H155V91Z" fill="#C4C4C4"/>
<path fill-rule="evenodd" clip-rule="evenodd" d="M41 142H35V141H41V142Z" fill="#C4C4C4"/>
<path fill-rule="evenodd" clip-rule="evenodd" d="M163 48H157V47H163V48Z" fill="#C4C4C4"/>
<path fill-rule="evenodd" clip-rule="evenodd" d="M58 80.2814C57.0796 80.2814 56.3327 80.9138 56.3327 81.6946V83.3053C56.3327 84.0862 57.0796 84.7186 58 84.7186C58.9205 84.7186 59.6673 84.0862 59.6673 83.3053V81.6946C59.6673 80.9138 58.9205 80.2814 58 80.2814ZM56 81.6946C56 80.759 56.8952 80 58 80C59.1049 80 60 80.759 60 81.6946V83.3053C60 84.241 59.1049 85 58 85C56.8952 85 56 84.241 56 83.3053V81.6946Z" fill="#C4C4C4"/>
<path fill-rule="evenodd" clip-rule="evenodd" d="M64.5001 80.2814C63.3494 80.2814 62.4159 80.9138 62.4159 81.6946V83.3053C62.4159 84.0862 63.3494 84.7186 64.5001 84.7186C65.6506 84.7186 66.5841 84.0862 66.5841 83.3053V81.6946C66.5841 80.9138 65.6506 80.2814 64.5001 80.2814ZM62 81.6946C62 80.759 63.1189 80 64.5001 80C65.8811 80 67 80.759 67 81.6946V83.3053C67 84.241 65.8811 85 64.5001 85C63.1189 85 62 84.241 62 83.3053V81.6946Z" fill="#C4C4C4"/>
<path d="M55.0001 74C56.1046 74 57 73.3285 57 72.5C57 71.6715 56.1046 71 55.0001 71C53.8955 71 53 71.6715 53 72.5C53 73.3285 53.8955 74 55.0001 74Z" fill="#C4C4C4"/>
<path fill-rule="evenodd" clip-rule="evenodd" d="M55 71.2491C54.0786 71.2491 53.3319 71.8092 53.3319 72.5C53.3319 73.1908 54.0786 73.7509 55 73.7509C55.9214 73.7509 56.6681 73.1908 56.6681 72.5C56.6681 71.8092 55.9214 71.2491 55 71.2491ZM53 72.5C53 71.6714 53.8955 71 55 71C56.1045 71 57 71.6714 57 72.5C57 73.3285 56.1045 74 55 74C53.8955 74 53 73.3285 53 72.5Z" fill="black" fill-opacity="0.85"/>
<path d="M48.4999 73C49.8807 73 51 71.8807 51 70.5001C51 69.1193 49.8807 68 48.4999 68C47.1193 68 46 69.1193 46 70.5001C46 71.8807 47.1193 73 48.4999 73Z" fill="#C4C4C4"/>
<path fill-rule="evenodd" clip-rule="evenodd" d="M48 68.3203C46.5552 68.3203 45.3841 69.2963 45.3841 70.5C45.3841 71.7038 46.5552 72.6797 48 72.6797C49.4448 72.6797 50.6159 71.7038 50.6159 70.5C50.6159 69.2963 49.4448 68.3203 48 68.3203ZM45 70.5C45 69.1192 46.3433 68 48 68C49.6567 68 51 69.1192 51 70.5C51 71.8808 49.6567 73 48 73C46.3433 73 45 71.8808 45 70.5Z" fill="black" fill-opacity="0.85"/>
</svg>
