<svg width="200" height="200" viewBox="0 0 200 200" fill="none" xmlns="http://www.w3.org/2000/svg">
<path fill-rule="evenodd" clip-rule="evenodd" d="M85.9999 73.747C74.2532 73.747 64.7306 83.4861 64.7306 95.5C64.7306 107.514 74.2532 117.253 85.9999 117.253C97.7467 117.253 107.269 107.514 107.269 95.5C107.269 83.4861 97.7467 73.747 85.9999 73.747ZM64 95.5C64 83.0736 73.8496 73 85.9999 73C98.1503 73 108 83.0736 108 95.5C108 107.926 98.1503 118 85.9999 118C73.8496 118 64 107.926 64 95.5Z" fill="black" fill-opacity="0.85"/>
<path fill-rule="evenodd" clip-rule="evenodd" d="M114.245 95C114.245 78.8634 101.382 65.7676 85.5001 65.7676V65C101.799 65 115 78.4399 115 95C115 111.56 101.784 125 85.5001 125C69.2157 125 56 111.56 56 95H56.7549C56.7549 111.136 69.6328 124.232 85.5001 124.232C101.367 124.232 114.245 111.136 114.245 95Z" fill="black" fill-opacity="0.85"/>
<path fill-rule="evenodd" clip-rule="evenodd" d="M123.215 81.4736C123.215 65.749 135.704 53 151.108 53C166.511 53 179 65.749 179 81.4736C179 97.1983 166.511 109.947 151.108 109.947V109.186C166.099 109.186 178.253 96.778 178.253 81.4736C178.253 66.1694 166.099 53.7613 151.108 53.7613C136.115 53.7613 123.961 66.1694 123.961 81.4736V96.2281C123.961 117.646 106.961 135 85.9805 135C64.9998 135 48 117.646 48 96.2281C48 74.8103 64.9998 57.4561 85.9805 57.4561V58.2175C65.4119 58.2175 48.746 75.2306 48.746 96.2281C48.746 117.225 65.4119 134.239 85.9805 134.239C106.549 134.239 123.215 117.225 123.215 96.2281V81.4736Z" fill="black" fill-opacity="0.85"/>
<path fill-rule="evenodd" clip-rule="evenodd" d="M151 61.7433C139.802 61.7433 130.726 71.0352 130.726 82.4999C130.726 93.9648 139.802 103.257 151 103.257V104C139.401 104 130 94.3752 130 82.4999C130 70.6248 139.401 61 151 61C162.6 61 172 70.6248 172 82.4999H171.274C171.274 71.0352 162.199 61.7433 151 61.7433Z" fill="black" fill-opacity="0.85"/>
<path fill-rule="evenodd" clip-rule="evenodd" d="M162.648 70.2206C156.552 64.2725 146.647 64.2725 140.551 70.2206L140 69.6836C146.401 63.4388 156.798 63.4388 163.199 69.6836C169.6 75.9283 169.6 86.0716 163.199 92.3164C156.798 98.5612 146.401 98.5612 140 92.3164L140.551 91.7793C146.647 97.7274 156.552 97.7274 162.648 91.7793C168.745 85.8312 168.745 76.1688 162.648 70.2206Z" fill="black" fill-opacity="0.85"/>
<path fill-rule="evenodd" clip-rule="evenodd" d="M141.788 80C141.788 85.6233 146.132 90.1742 151.499 90.1742C156.867 90.1742 161.212 85.6233 161.212 80H162C162 86.0792 157.303 91 151.499 91C145.697 91 141 86.0792 141 80H141.788Z" fill="black" fill-opacity="0.85"/>
<path fill-rule="evenodd" clip-rule="evenodd" d="M50.4998 60.5832C69.8185 41.1389 101.156 41.139 120.489 60.5831L119.96 61.1147C100.919 41.9643 70.0553 41.9644 51.0289 61.1146L51.0288 61.1147C31.9875 80.2652 31.9876 111.306 51.0286 130.442L51.0288 130.442C60.5192 139.986 75.1087 143.304 88.6903 142.558C95.475 142.186 101.988 140.8 107.459 138.684C112.936 136.565 117.337 133.727 119.933 130.472V130.472C124.796 124.377 128.042 120.35 131.275 117.817C134.541 115.257 137.786 114.223 142.618 114.052C147.513 113.878 152.457 116.171 156.12 119.872C159.785 123.575 162.197 128.718 161.987 134.284C161.615 144.313 153.364 152.61 143.392 152.986L143.378 152.61L143.392 152.986C132.349 153.406 123.275 144.535 123.275 133.519H124.023C124.023 144.111 132.746 152.638 143.364 152.234C152.945 151.874 160.882 143.892 161.24 134.255C161.44 128.929 159.133 123.982 155.59 120.402C152.044 116.821 147.294 114.639 142.645 114.804C137.934 114.971 134.85 115.968 131.735 118.41C128.587 120.877 125.401 124.82 120.516 130.943C120.516 130.943 120.516 130.943 120.516 130.943L120.23 130.712L120.516 130.943C117.807 134.341 113.271 137.242 107.727 139.386C102.178 141.532 95.5866 142.933 88.731 143.309C75.032 144.061 60.1968 140.726 50.5 130.973L50.7643 130.708L50.4999 130.973C50.4999 130.973 50.5 130.973 50.5 130.973C31.1666 111.544 31.1668 80.0272 50.4998 60.5832Z" fill="black" fill-opacity="0.85"/>
<path fill-rule="evenodd" clip-rule="evenodd" d="M41.4784 135C19.5072 113.183 19.5072 77.8169 41.4784 56L42 56.5178C20.3168 78.0488 20.3168 112.951 42 134.482L41.4784 135Z" fill="black" fill-opacity="0.85"/>
<path fill-rule="evenodd" clip-rule="evenodd" d="M21 60.6042C23.7346 56.7844 26.9067 53.2211 30.4385 50L31 50.512C27.5071 53.6978 24.3696 57.2221 21.6649 61L21 60.6042Z" fill="black" fill-opacity="0.85"/>
<path fill-rule="evenodd" clip-rule="evenodd" d="M72.796 95C72.796 101.743 78.2568 107.204 85 107.204C91.7432 107.204 97.2041 101.743 97.2041 95H98C98 102.183 92.1829 108 85 108C77.8171 108 72 102.183 72 95H72.796Z" fill="black" fill-opacity="0.85"/>
<path fill-rule="evenodd" clip-rule="evenodd" d="M72 90V84H73V90H72Z" fill="black" fill-opacity="0.85"/>
<path fill-rule="evenodd" clip-rule="evenodd" d="M147 78V76H149V78H147Z" fill="black" fill-opacity="0.85"/>
<path fill-rule="evenodd" clip-rule="evenodd" d="M143 120.757C136.227 120.757 130.729 126.467 130.729 133.5C130.729 140.533 136.227 146.243 143 146.243V147C135.825 147 130 140.951 130 133.5C130 126.049 135.825 120 143 120C150.175 120 156 126.049 156 133.5H155.272C155.272 126.467 149.773 120.757 143 120.757Z" fill="black" fill-opacity="0.85"/>
<path fill-rule="evenodd" clip-rule="evenodd" d="M136.828 132C136.828 134.414 139.362 136.364 142.501 136.364C145.64 136.364 148.173 134.414 148.173 132H149C149 134.766 146.096 137 142.501 137C138.904 137 136 134.766 136 132H136.828Z" fill="black" fill-opacity="0.85"/>
<path fill-rule="evenodd" clip-rule="evenodd" d="M140 131V127H141V131H140Z" fill="black" fill-opacity="0.85"/>
<path fill-rule="evenodd" clip-rule="evenodd" d="M144 131V127H145V131H144Z" fill="black" fill-opacity="0.85"/>
</svg>
