<svg width="34" height="34" viewBox="0 0 34 34" fill="none" xmlns="http://www.w3.org/2000/svg">
<path d="M34 17C34 7.61116 26.3888 0 17 0C7.61116 0 0 7.61116 0 17C0 26.3888 7.61116 34 17 34C26.3888 34 34 26.3888 34 17Z" fill="white"/>
<path fill-rule="evenodd" clip-rule="evenodd" d="M24.1613 8.60789L6.59318 15.2464C5.39327 15.7167 5.40035 16.3726 6.3736 16.6631L10.7554 18.0046L12.4327 23.0395C12.6353 23.5906 12.5361 23.8087 13.1269 23.8087C13.5816 23.8087 13.7842 23.6047 14.0378 23.3625L16.2294 21.2743L20.7868 24.5737C21.6254 25.0271 22.2318 24.7919 22.44 23.8101L25.432 10.0005C25.738 8.79631 24.9645 8.25089 24.1613 8.60789ZM11.4439 17.6958L21.3194 11.5928C21.8124 11.2996 22.2644 11.4568 21.8932 11.7798L13.4357 19.2541L13.107 22.6938L11.4439 17.6958Z" fill="#222222"/>
</svg>
