<svg width="160" height="30" viewBox="0 0 160 30" fill="none" xmlns="http://www.w3.org/2000/svg">
<path d="M33.4365 3.2616V22.8374H36.8447V5.90926H42.9287V22.8374H46.3369V3.2616H33.4365Z" fill="black"/>
<path d="M52.2411 8.6696H49.1427V26.9216H52.4946V21.1756C53.3396 22.4431 54.5789 23.1191 56.0154 23.1191C59.2827 23.1191 61.5361 20.4996 61.5361 15.7394C61.5361 11.0074 59.3391 8.38793 56.1844 8.38793C54.6071 8.38793 53.3114 9.12026 52.4101 10.5004L52.2411 8.6696ZM55.1704 20.4714C53.3959 20.4714 52.4946 19.0349 52.4946 15.7676C52.4946 12.4721 53.4522 11.0356 55.3394 11.0356C57.1702 11.0356 58.0716 12.4721 58.0716 15.7394C58.0716 19.0349 57.1139 20.4714 55.1704 20.4714Z" fill="black"/>
<path d="M74.2293 13.1763C74.2293 9.73993 72.483 8.44426 68.934 8.44426C66.7088 8.44426 64.9625 9.14843 63.9485 9.73993V12.5284C64.8498 11.8524 66.8215 11.1201 68.5397 11.1201C70.1452 11.1201 70.8775 11.6834 70.8775 13.2044V13.9931H70.3423C65.216 13.9931 62.9345 15.6831 62.9345 18.5561C62.9345 21.4291 64.6808 23.0346 67.2722 23.0346C69.2438 23.0346 70.0888 22.3868 70.7367 21.7108H70.8775C70.9057 22.0769 71.0183 22.5558 71.131 22.8374H74.3983C74.2857 21.6826 74.2293 20.5278 74.2293 19.3729V13.1763ZM70.8775 19.4574C70.455 20.0771 69.6663 20.5841 68.4833 20.5841C67.075 20.5841 66.3708 19.7954 66.3708 18.5843C66.3708 16.9788 67.5257 16.3873 70.3987 16.3873H70.8775V19.4574Z" fill="black"/>
<path d="M85.2335 22.8374H89.036L83.6562 15.3169L88.3881 8.6696H85.0081L80.2761 15.3169V8.6696H76.9243V22.8374H80.2761V15.9929L85.2335 22.8374Z" fill="black"/>
<path d="M100.273 11.3173V8.6696H89.0349V11.3173H92.9782V22.8374H96.33V11.3173H100.273Z" fill="black"/>
<path d="M102.258 8.6696V22.8374H105.243L110.37 14.0776V22.8374H113.609V8.6696H110.623L105.497 17.4294V8.6696H102.258Z" fill="black"/>
<path d="M124.733 22.8374H128.535L123.156 15.3169L127.887 8.6696H124.507L119.775 15.3169V8.6696H116.424V22.8374H119.775V15.9929L124.733 22.8374Z" fill="black"/>
<path d="M131.484 27.2033C134.611 27.2033 135.766 24.9781 136.723 22.0769L141.146 8.6696H137.906L134.78 19.3166L131.653 8.6696H128.133L133.005 23.4571C132.639 24.1331 132.104 24.5556 131.175 24.5556C130.555 24.5556 130.02 24.3584 129.654 23.9923V26.7244C129.654 26.7244 130.161 27.2033 131.484 27.2033Z" fill="black"/>
<path d="M154.501 22.8374H157.768L157.712 8.6696H153.121L150.05 18.1054L147.29 8.6696H142.417V22.8374H145.262V12.2468L148.332 22.8374H151.064L154.501 12.2468V22.8374Z" fill="black"/>
<path fill-rule="evenodd" clip-rule="evenodd" d="M15 28C22.1797 28 28 22.1797 28 15C28 7.8203 22.1797 2 15 2C7.8203 2 2 7.8203 2 15C2 22.1797 7.8203 28 15 28ZM15.4726 9.55447H16.6337V22.4506H19.2323V7.53643H15.4588C11.6577 7.53643 9.65347 9.49918 9.65347 12.3742C9.65347 14.6687 10.7454 16.0233 12.6944 17.4193L9.30791 22.4644H12.1276L15.9011 16.825L14.588 15.9403C12.9984 14.8622 12.2244 14.019 12.2244 12.2222C12.2244 10.6326 13.344 9.55447 15.4726 9.55447Z" fill="black"/>
</svg>
