<svg width="40" height="40" viewBox="0 0 40 40" fill="none" xmlns="http://www.w3.org/2000/svg">
<path fill-rule="evenodd" clip-rule="evenodd" d="M3.65581 21.6417C4.92995 16.6684 4.84651 11.8792 4.99921 6.83469C5.02888 5.84953 4.22273 5.03049 3.19959 5.00082C2.17583 4.97115 1.32144 5.74862 1.29115 6.73378C1.14648 11.5171 1.26334 16.069 0.0541186 20.793C-0.190693 21.7485 0.418258 22.7159 1.41234 22.9473C2.40581 23.1847 3.41162 22.5972 3.65581 21.6417Z" fill="#FFCB48"/>
<path fill-rule="evenodd" clip-rule="evenodd" d="M14.0069 31.5076C22.3765 23.4984 30.2626 13.1954 35.7745 2.79218C36.2552 1.88346 35.9421 0.736549 35.0753 0.235188C34.2086 -0.266174 33.1143 0.0597382 32.6336 0.968456C27.3037 11.027 19.6769 20.9916 11.5837 28.7314C10.8522 29.4333 10.8014 30.624 11.47 31.3886C12.1386 32.1532 13.2754 32.2095 14.0069 31.5076Z" fill="#FFCB48"/>
<path fill-rule="evenodd" clip-rule="evenodd" d="M16.4983 39.6202C24.1272 40.9242 31.9906 38.6994 38.9275 35.5537C39.8325 35.1396 40.2454 34.0458 39.8499 33.1126C39.4537 32.1732 38.3972 31.7467 37.4922 32.1546C31.1745 35.0222 24.0294 37.1482 17.0811 35.9616C16.1063 35.7947 15.1846 36.4807 15.0242 37.4881C14.8631 38.4954 15.5241 39.4533 16.4983 39.6202Z" fill="#FFCB48"/>
</svg>
