<svg width="60" height="62" viewBox="0 0 60 62" fill="none" xmlns="http://www.w3.org/2000/svg">
<path fill-rule="evenodd" clip-rule="evenodd" d="M30.8871 56.1507C23.1509 54.1121 15.7009 54.2456 7.85397 54.0013C6.3215 53.9538 5.04744 55.2436 5.00128 56.8807C4.95512 58.5187 6.16452 59.8857 7.69699 59.9342C15.1378 60.1656 22.2185 59.9787 29.5669 61.9134C31.0532 62.3051 32.558 61.3308 32.918 59.7403C33.2873 58.1507 32.3734 56.5414 30.8871 56.1507Z" fill="#FFCB48"/>
<path fill-rule="evenodd" clip-rule="evenodd" d="M46.2768 40.3093C34.5132 27.2526 19.3808 14.9504 4.10101 6.35175C2.76633 5.60189 1.08181 6.09031 0.345432 7.44248C-0.390942 8.79466 0.0877419 10.5017 1.42242 11.2515C16.1959 19.5663 30.8314 31.4641 42.1992 44.0894C43.2301 45.2305 44.979 45.3099 46.102 44.2668C47.225 43.2237 47.3077 41.4504 46.2768 40.3093Z" fill="#FFCB48"/>
<path fill-rule="evenodd" clip-rule="evenodd" d="M59.4303 36.6627C61.3863 24.7615 58.0491 12.4946 53.3305 1.67303C52.7094 0.261232 51.0686 -0.382796 49.6688 0.234224C48.2598 0.852176 47.6201 2.50038 48.2319 3.91218C52.5333 13.7678 55.7223 24.9141 53.9424 35.7534C53.6921 37.2741 54.7211 38.7119 56.2321 38.9623C57.7432 39.2136 59.18 38.1824 59.4303 36.6627Z" fill="#FFCB48"/>
</svg>
