<svg width="160" height="134" viewBox="0 0 160 134" fill="none" xmlns="http://www.w3.org/2000/svg">
<g opacity="0.65">
<path d="M82.047 85.9089C105.561 85.1245 129.212 91.8872 139.142 113.097C139.385 113.612 140.099 113.915 140.737 113.774C141.375 113.63 141.697 113.097 141.455 112.582C131.049 90.3585 106.351 83.1527 81.7182 83.9742C57.0849 84.7957 31.9396 89.5914 25.2767 90.7733C24.7248 90.8712 24.4358 91.3897 24.4547 91.9499C24.4799 92.6969 25.2789 93.1094 26.0236 93.0459C29.7468 92.7286 58.5334 86.6933 82.047 85.9089Z" fill="#373737"/>
<path fill-rule="evenodd" clip-rule="evenodd" d="M139.598 111.779C137.077 110.458 134.613 109.082 131.977 107.904C124.954 104.765 116.94 102.612 109.124 102.289C108.44 102.262 107.91 102.673 107.936 103.205C107.964 103.741 108.54 104.195 109.22 104.224C116.638 104.527 124.241 106.587 130.904 109.565C133.921 110.915 136.712 112.528 139.624 114.016C139.77 114.088 141.014 114.764 141.32 114.853C142.032 115.064 142.458 114.807 142.633 114.666C142.781 114.55 142.92 114.381 142.974 114.131C143.018 113.925 142.98 113.511 142.781 112.955C142.147 111.171 139.924 107.124 139.646 106.436C136.454 98.5465 135.134 90.9075 133.489 82.8738C133.377 82.3406 132.742 81.9368 132.069 81.9731C131.396 82.0094 130.939 82.4725 131.048 83.0051C132.713 91.1406 134.063 98.876 137.295 106.861C137.485 107.334 138.713 109.924 139.598 111.779Z" fill="#373737"/>
</g>
</svg>
