<svg width="130" height="109" viewBox="0 0 130 109" fill="none" xmlns="http://www.w3.org/2000/svg">
<path fill-rule="evenodd" clip-rule="evenodd" d="M80.6625 48.297C81.755 48.5212 82.8504 48.7568 83.7645 49.0113C100.086 53.459 116.719 62.9602 128.366 76.3259C128.785 76.8143 128.808 77.5554 128.371 77.9917C127.933 78.428 127.263 78.3778 126.844 77.8885C115.395 64.8907 99.2084 55.6425 83.2933 51.3093C82.7836 51.1609 82.1841 51.0268 81.5837 50.8888C81.8935 52.3114 81.7872 53.5854 81.4443 54.6855C80.8822 56.3319 79.6755 57.6841 78.0909 58.6938C75.8697 60.0976 72.9904 60.8286 70.2071 60.9098C68.0668 60.9492 65.9937 60.5667 64.554 59.7778C63.3482 59.1544 62.5331 58.2586 62.1348 57.1835C61.7199 56.0501 61.7877 54.6415 62.7202 52.9817C64.2492 50.1264 67.0048 48.626 70.289 48.0019C72.6865 47.55 75.3192 47.5989 77.8298 47.8756C77.3533 47.1848 76.7727 46.4575 76.0873 45.6896C70.7269 39.981 60.6281 36.0339 49.3627 33.5831C32.2207 29.8714 12.3403 29.6987 2.10827 32.5419C1.58797 32.6864 0.922023 32.3178 0.742645 31.6852C0.563266 31.0526 0.937992 30.394 1.45829 30.2496C11.9503 27.3336 32.196 27.4761 49.7313 31.2552C61.4976 33.8233 72.0565 38.0701 77.5911 44.0631C78.9561 45.578 80.0074 46.9764 80.6625 48.297ZM79.2094 50.431C79.6614 51.6953 79.6962 52.8073 79.4095 53.7755C78.9985 54.9651 78.0512 55.9131 76.945 56.6305C75.0432 57.8411 72.5061 58.4618 70.0937 58.5315C68.4196 58.5657 66.7638 58.3334 65.572 57.759C64.9172 57.429 64.4232 57.0086 64.1669 56.4344C63.9937 55.8235 64.1643 55.1038 64.5771 54.2503C65.8861 51.9386 68.188 50.82 70.7635 50.3359C73.4282 49.8367 76.5583 49.9886 79.2094 50.431Z" fill="#373737"/>
<path fill-rule="evenodd" clip-rule="evenodd" d="M126.837 77.7715C122.919 72.2011 120.428 65.0675 119.352 58.3037C119.261 57.6512 119.653 57.0577 120.195 56.9895C120.823 56.8958 121.419 57.3462 121.511 57.9978C122.571 64.3765 124.862 71.1365 128.597 76.3907C128.938 76.9328 128.866 77.6693 128.41 78.0425C127.868 78.4394 127.178 78.3136 126.837 77.7715Z" fill="#373737"/>
<path fill-rule="evenodd" clip-rule="evenodd" d="M126.961 78.0913C121.853 74.2628 114.965 74.0584 109.12 74.8878C108.578 74.956 107.983 74.5045 107.891 73.852C107.8 73.2005 108.193 72.6078 108.822 72.515C115.12 71.6325 122.613 71.9978 128.193 76.1714C128.678 76.5627 128.796 77.3094 128.477 77.8332C128.158 78.3579 127.445 78.4817 126.961 78.0913Z" fill="#373737"/>
</svg>
