<svg width="200" height="200" viewBox="0 0 200 200" fill="none" xmlns="http://www.w3.org/2000/svg">
<path fill-rule="evenodd" clip-rule="evenodd" d="M68.0975 76.6383C68.0975 57.932 83.7075 42.8861 102.523 44.0648C119.252 45.1129 132.589 59.2718 132.835 76.1475C132.915 81.6956 131.61 86.934 129.258 91.5336C126.798 96.3446 130.264 102.05 135.609 102.05C157.27 102.05 175 119.923 175 141.76V155H173.961V141.76C173.961 120.494 156.692 103.092 135.609 103.092C129.481 103.092 125.523 96.5558 128.334 91.0581C130.61 86.6055 131.875 81.5353 131.796 76.1626C131.559 59.8251 118.639 46.1185 102.458 45.1047C84.2502 43.964 69.1359 58.5233 69.1359 76.6383C69.1359 81.8835 70.4163 86.8271 72.6612 91.1851C72.661 91.1849 72.661 91.1848 72.6609 91.1845L72.2002 91.4248L72.6614 91.1856C72.6613 91.1853 72.6613 91.1852 72.6612 91.1851C75.4842 96.6383 71.3494 103.108 65.2905 103.108H56.725C39.8526 103.092 26.0384 117.015 26.0384 134.028V155H25V134.028C25 116.444 39.2746 102.05 56.726 102.066H56.7256V102.585L56.726 102.066H65.2905C70.6082 102.066 74.1866 96.3914 71.7394 91.665L71.739 91.664C69.4203 87.1631 68.0975 82.0559 68.0975 76.6383Z" fill="black" fill-opacity="0.85"/>
<path fill-rule="evenodd" clip-rule="evenodd" d="M39.4574 129.109C39.4574 122.738 44.8623 117.62 51.3756 118.022L51.3766 118.022C57.1616 118.392 61.7816 123.204 61.8667 128.958V128.959V128.96C61.8836 130.849 61.4434 132.643 60.6263 134.206C59.9246 135.581 60.9172 137.179 62.4452 137.179C69.9007 137.179 76 143.234 76 150.634V155H74.9526V150.634C74.9526 143.801 69.3174 138.214 62.4452 138.214C60.1165 138.214 58.6458 135.784 59.6924 133.737L59.6936 133.735L59.6946 133.733C60.4325 132.322 60.8347 130.695 60.8194 128.971C60.7416 123.755 56.5452 119.389 51.3095 119.055C45.4078 118.69 40.5048 123.327 40.5048 129.109C40.5048 130.783 40.9211 132.365 41.6456 133.749L41.6461 133.75C42.7079 135.787 41.1516 138.182 38.8627 138.182H35.994C30.531 138.182 26.0474 142.618 26.0474 148.043V154.967H25V148.043C25 142.05 29.9493 137.147 35.994 137.147H38.8627C40.3987 137.147 41.4034 135.545 40.7151 134.224C39.9163 132.697 39.4574 130.953 39.4574 129.109Z" fill="black" fill-opacity="0.85"/>
<path fill-rule="evenodd" clip-rule="evenodd" d="M89.1739 129.109C89.1739 122.738 94.4729 117.62 100.858 118.022L100.859 118.022C106.531 118.392 111.06 123.204 111.144 128.958V128.959V128.96C111.16 130.849 110.729 132.643 109.928 134.206C109.24 135.581 110.213 137.179 111.711 137.179C119.02 137.179 125 143.234 125 150.634V155H123.973V150.634C123.973 143.801 118.448 138.214 111.711 138.214C109.428 138.214 107.986 135.784 109.012 133.737L109.013 133.735L109.014 133.733C109.738 132.322 110.132 130.695 110.117 128.971C110.041 123.755 105.927 119.389 100.794 119.055C95.0077 118.69 90.2008 123.327 90.2008 129.109C90.2008 130.783 90.6089 132.365 91.3193 133.749L91.3197 133.75C92.3607 135.787 90.8349 138.182 88.5909 138.182H85.7784C80.4225 138.182 76.0268 142.618 76.0268 148.043V154.967H75V148.043C75 142.05 79.8523 137.147 85.7784 137.147H88.5909C90.0968 137.147 91.0817 135.545 90.4069 134.224C89.6238 132.697 89.1739 130.953 89.1739 129.109Z" fill="black" fill-opacity="0.85"/>
<path fill-rule="evenodd" clip-rule="evenodd" d="M138.458 130.41C138.458 123.866 143.862 118.609 150.375 119.023L150.376 119.023C156.162 119.402 160.781 124.345 160.867 130.254V130.255V130.257C160.883 132.197 160.443 134.039 159.626 135.644C158.925 137.056 159.917 138.698 161.445 138.698C168.901 138.698 175 144.917 175 152.516V157H173.953V152.516C173.953 145.499 168.317 139.76 161.445 139.76C159.116 139.76 157.646 137.265 158.692 135.163L158.693 135.161L158.694 135.159C159.432 133.71 159.835 132.039 159.82 130.268C159.742 124.911 155.545 120.427 150.31 120.083C144.408 119.709 139.505 124.471 139.505 130.41C139.505 132.129 139.921 133.753 140.645 135.175L140.647 135.176C141.708 137.268 140.151 139.728 137.863 139.728H134.994C129.531 139.728 125.047 144.284 125.047 149.856V156.967H124V149.856C124 143.701 128.949 138.665 134.994 138.665H137.863C139.399 138.665 140.404 137.019 139.715 135.662C138.916 134.095 138.458 132.304 138.458 130.41Z" fill="black" fill-opacity="0.85"/>
</svg>
