<svg width="200" height="200" viewBox="0 0 200 200" fill="none" xmlns="http://www.w3.org/2000/svg">
<rect width="200" height="200" fill="white"/>
<path fill-rule="evenodd" clip-rule="evenodd" d="M82.1318 63.6189L77 60.5312L77.33 60L83 63.4116L79.5508 69L79.0101 68.6767L82.1318 63.6189Z" fill="black" fill-opacity="0.85"/>
<path fill-rule="evenodd" clip-rule="evenodd" d="M50.7719 65V87.9152C50.7719 91.2312 49.1615 94.1332 46.7783 95.7512L46.7774 95.7518L46.7764 95.7525C46.0253 96.2536 45.5812 97.2014 45.5812 98.1945V99.3727C45.5812 100.422 46.0889 101.376 46.9045 101.909L46.9052 101.91C49.3447 103.515 51 106.455 51 109.82V133H50.4187V109.82C50.4187 106.694 48.8817 103.959 46.6086 102.462C45.6216 101.817 45 100.656 45 99.3727V98.1945C45 96.9999 45.5329 95.8321 46.4751 95.2029C48.6958 93.6949 50.1907 90.9946 50.1907 87.9152V65H50.7719Z" fill="black" fill-opacity="0.85"/>
<path fill-rule="evenodd" clip-rule="evenodd" d="M33 88.1837V65H33.6292V88.1837C33.6292 91.4503 35.4525 94.3136 38.1041 95.7394C39.2627 96.3588 40 97.573 40 98.9098V99.4749C40 100.786 39.2883 101.973 38.1819 102.605C35.6195 104.078 33.8761 106.884 33.8761 110.081V133H33.2468V110.081C33.2468 106.64 35.1235 103.626 37.8738 102.045L37.8746 102.044C38.7897 101.522 39.3708 100.545 39.3708 99.4749V98.9098C39.3708 97.8179 38.7684 96.8198 37.8118 96.3086L37.811 96.3083C34.9616 94.776 33 91.699 33 88.1837Z" fill="black" fill-opacity="0.85"/>
<path d="M27 55V59.7331C29.9074 59.7331 32.269 62.0937 32.269 65H51.731C51.731 62.0937 54.0925 59.7331 57 59.7331V55H27Z" fill="black" fill-opacity="0.85"/>
<path fill-rule="evenodd" clip-rule="evenodd" d="M26 55H57V60.5518H56.6786C53.9145 60.5518 51.6682 62.8464 51.6682 65.672V66H31.3317V65.672C31.3317 62.8464 29.0855 60.5518 26.3214 60.5518H26V55ZM26.6428 55.6559V59.9052C29.5072 60.0695 31.8048 62.418 31.9655 65.3441H51.0344C51.1952 62.418 53.4927 60.0695 56.3572 59.9052V55.6559H26.6428Z" fill="black" fill-opacity="0.85"/>
<path d="M57 143V138.267C53.9957 138.267 51.5554 135.906 51.5554 133H31.4446C31.4446 135.906 29.0044 138.267 26 138.267V143H57Z" fill="black" fill-opacity="0.85"/>
<path fill-rule="evenodd" clip-rule="evenodd" d="M31.3317 133H51.6682V133.298C51.6682 135.867 53.9145 137.953 56.6785 137.953H57V143H26V137.953H26.3214C29.0855 137.953 31.3317 135.867 31.3317 133.298V133ZM31.9655 133.596C31.8048 136.256 29.5072 138.391 26.6428 138.541V142.404H56.3572V138.541C53.4927 138.391 51.1952 136.256 51.0344 133.596H31.9655Z" fill="black" fill-opacity="0.85"/>
<path fill-rule="evenodd" clip-rule="evenodd" d="M131 82.4472L114.581 98.4087C112.206 100.717 108.849 101.501 105.797 100.79C105.797 100.79 105.797 100.79 105.797 100.79L105.873 100.482L105.798 100.79C105.797 100.79 105.797 100.79 105.797 100.79C104.83 100.569 103.812 100.873 103.095 101.57L102.253 102.388L102.253 102.389C101.499 103.11 101.222 104.177 101.487 105.175L101.487 105.175C102.281 108.179 101.488 111.504 99.0753 113.849L82.4614 130L82 129.553L98.6139 113.402C100.854 111.224 101.596 108.132 100.855 105.333C100.855 105.333 100.855 105.333 100.855 105.333L101.17 105.254L100.855 105.333C100.536 104.129 100.867 102.828 101.794 101.939L101.793 101.94L102.024 102.164L101.795 101.938L102.633 101.123C103.5 100.281 104.746 99.8987 105.948 100.174L105.949 100.174C108.792 100.837 111.914 100.105 114.119 97.9615L130.539 82L131 82.4472Z" fill="black" fill-opacity="0.85"/>
<path fill-rule="evenodd" clip-rule="evenodd" d="M101.277 85.4874L117.548 69L118 69.4565L101.729 85.9439C99.4312 88.2724 98.7398 91.6276 99.6373 94.5774C100.028 95.8594 99.7165 97.2543 98.7708 98.2127L98.3652 98.6237C97.4459 99.5553 96.1084 99.8855 94.8673 99.5282C92.0028 98.7123 88.784 99.4359 86.5316 101.706C86.5315 101.706 86.5314 101.706 86.5313 101.707L70.4519 118L70 117.543L86.0806 101.249C88.5042 98.8055 91.965 98.0302 95.0409 98.9064L95.0417 98.9067C96.0669 99.2019 97.1628 98.9277 97.9134 98.1671L98.319 97.7562C99.0908 96.974 99.3515 95.8306 99.0271 94.7678V94.7675C98.0637 91.601 98.8037 87.9938 101.277 85.4874Z" fill="black" fill-opacity="0.85"/>
<path d="M120.406 58L117 61.4057C119.089 63.4951 119.089 66.9009 117 68.9903L131.01 83C133.099 80.9106 136.505 80.9106 138.594 83L142 79.5942L120.406 58Z" fill="black" fill-opacity="0.85"/>
<path fill-rule="evenodd" clip-rule="evenodd" d="M120.726 57L142 79.1245L138.273 83L138.052 82.7705C136.159 80.8009 133.07 80.8009 131.177 82.7705L130.956 83L117 68.4853L117.22 68.2565C119.114 66.2865 119.114 63.0742 117.22 61.1043L117 60.8755L120.726 57ZM117.875 60.8819C119.727 63.038 119.727 66.3228 117.875 68.4789L130.963 82.0899C133.035 80.1642 136.194 80.1642 138.267 82.0899L141.118 79.1245L120.726 57.9167L117.875 60.8819Z" fill="black" fill-opacity="0.85"/>
<path d="M79.5942 141L83 137.594C80.9106 135.505 80.9106 132.099 83 130.01L68.9903 116C66.901 118.089 63.4952 118.089 61.4058 116L58 119.406L79.5942 141Z" fill="black" fill-opacity="0.85"/>
<path fill-rule="evenodd" clip-rule="evenodd" d="M61.8754 116L62.105 116.23C64.0746 118.199 67.2861 118.199 69.2558 116.23L69.4852 116L84 130.515L83.7711 130.744C81.8012 132.713 81.8012 135.926 83.7711 137.896L84 138.125L80.1245 142L58 119.875L61.8754 116ZM58.9167 119.875L80.1245 141.083L83.0898 138.118C81.1636 135.962 81.1636 132.677 83.0898 130.521L69.4788 116.91C67.3227 118.836 64.0381 118.836 61.882 116.91L58.9167 119.875Z" fill="black" fill-opacity="0.85"/>
<path fill-rule="evenodd" clip-rule="evenodd" d="M150 89.5285V66H150.581V89.5285C150.581 92.7001 152.118 95.4752 154.392 96.9933C155.378 97.6478 156 98.8261 156 100.128V101.323C156 102.535 155.468 103.72 154.525 104.358C152.304 105.888 150.809 108.628 150.809 111.752V135H150.228V111.752C150.228 108.388 151.839 105.444 154.222 103.802L154.223 103.801L154.224 103.801C154.975 103.292 155.419 102.331 155.419 101.323V100.128C155.419 99.0637 154.911 98.0952 154.096 97.5544L154.095 97.5539C151.655 95.925 150 92.9431 150 89.5285Z" fill="black" fill-opacity="0.85"/>
<path fill-rule="evenodd" clip-rule="evenodd" d="M167.753 67V89.9272C167.753 93.3675 165.877 96.381 163.126 97.9618L163.125 97.9622C162.21 98.4847 161.629 99.4616 161.629 100.531V101.096C161.629 102.188 162.231 103.186 163.188 103.697L163.189 103.697C166.038 105.229 168 108.306 168 111.82V135H167.371V111.82C167.371 108.555 165.547 105.692 162.897 104.266C161.737 103.647 161 102.433 161 101.096V100.531C161 99.2203 161.711 98.0333 162.818 97.4016C165.381 95.9285 167.123 93.1232 167.123 89.9272V67H167.753Z" fill="black" fill-opacity="0.85"/>
<path d="M175 145V140.267C171.996 140.267 169.555 137.906 169.555 135H149.445C149.445 137.906 147.004 140.267 144 140.267V145H175Z" fill="black" fill-opacity="0.85"/>
<path fill-rule="evenodd" clip-rule="evenodd" d="M149.331 134H169.668V134.328C169.668 137.154 171.914 139.448 174.678 139.448H175V144.672H174.678V145H144V139.448H144.321C147.085 139.448 149.331 137.154 149.331 134.328V134ZM174.357 144.344V140.095C171.493 139.93 169.195 137.582 169.035 134.656H149.965C149.805 137.582 147.507 139.93 144.643 140.095V144.344H174.357Z" fill="black" fill-opacity="0.85"/>
<path d="M144 57V61.733C147.005 61.733 149.445 64.0936 149.445 67H169.555C169.555 64.0936 171.995 61.733 175 61.733V57H144Z" fill="black" fill-opacity="0.85"/>
<path fill-rule="evenodd" clip-rule="evenodd" d="M144.321 57H175V62.0472H174.679C171.915 62.0472 169.668 64.1332 169.668 66.7019V67H149.332V66.7019C149.332 64.1332 147.085 62.0472 144.321 62.0472H144V57.2981H144.321V57ZM144.643 57.5962V61.4592C147.507 61.6087 149.805 63.7436 149.965 66.4038H169.035C169.195 63.7436 171.493 61.6087 174.357 61.4592V57.5962H144.643Z" fill="black" fill-opacity="0.85"/>
<path fill-rule="evenodd" clip-rule="evenodd" d="M82 64.6446C74.0742 64.6446 67.6455 71.0729 67.6455 79H67C67 70.7177 73.7168 64 82 64V64.6446Z" fill="black" fill-opacity="0.85"/>
</svg>
