<svg width="24" height="24" viewBox="0 0 24 24" fill="none" xmlns="http://www.w3.org/2000/svg">
<path fill-rule="evenodd" clip-rule="evenodd" d="M1.86577 1.86577C2.45726 1.27425 3.15947 0.80503 3.93231 0.4849C4.70514 0.16477 5.53346 0 6.36998 0C7.20649 0 8.03481 0.16477 8.80765 0.4849C9.58048 0.80503 10.2827 1.27425 10.8742 1.86577L15.3776 6.36918C15.9691 6.96067 16.4383 7.66288 16.7585 8.43571C17.0786 9.20855 17.2434 10.0369 17.2434 10.8734C17.2434 11.7099 17.0786 12.5382 16.7585 13.3111C16.4383 14.0839 15.9691 14.7861 15.3776 15.3776C15.2307 15.5297 15.055 15.651 14.8607 15.7345C14.6664 15.8179 14.4575 15.8618 14.246 15.8637C14.0346 15.8655 13.8249 15.8252 13.6292 15.7452C13.4335 15.6651 13.2557 15.5468 13.1061 15.3973C12.9566 15.2478 12.8384 15.07 12.7583 14.8743C12.6782 14.6786 12.638 14.4689 12.6398 14.2575C12.6416 14.046 12.6856 13.8371 12.769 13.6428C12.8525 13.4485 12.9738 13.2728 13.1259 13.1259C13.723 12.5286 14.0584 11.7187 14.0584 10.8742C14.0584 10.0297 13.723 9.21973 13.1259 8.62248L8.62407 4.11748C8.02646 3.51986 7.21592 3.18413 6.37077 3.18413C5.52562 3.18413 4.71509 3.51986 4.11748 4.11748C3.51986 4.71509 3.18413 5.52562 3.18413 6.37077C3.18413 7.21592 3.51986 8.02646 4.11748 8.62407L5.24333 9.74992C5.39887 9.89599 5.52348 10.0718 5.60974 10.267C5.696 10.4622 5.74216 10.6727 5.74547 10.886C5.74878 11.0994 5.70919 11.3112 5.62903 11.509C5.54887 11.7067 5.42979 11.8863 5.27885 12.0372C5.12792 12.188 4.94821 12.307 4.7504 12.387C4.55259 12.467 4.34072 12.5064 4.12737 12.503C3.91402 12.4995 3.70354 12.4532 3.50844 12.3668C3.31333 12.2804 3.13758 12.1557 2.99162 12L1.86577 10.8742C1.27425 10.2827 0.80503 9.58048 0.4849 8.80765C0.16477 8.03481 0 7.20649 0 6.36998C0 5.53346 0.16477 4.70514 0.4849 3.93231C0.80503 3.15947 1.27425 2.45726 1.86577 1.86577ZM10.8742 8.62248C11.1727 8.9211 11.3404 9.32607 11.3404 9.74833C11.3404 10.1706 11.1727 10.5756 10.8742 10.8742C10.2771 11.4714 9.94169 12.2814 9.94169 13.1259C9.94169 13.9704 10.2771 14.7803 10.8742 15.3776L15.3776 19.8826C15.975 20.48 16.7852 20.8156 17.6301 20.8156C18.4749 20.8156 19.2852 20.48 19.8826 19.8826C20.48 19.2852 20.8156 18.4749 20.8156 17.6301C20.8156 16.7852 20.48 15.975 19.8826 15.3776L18.7567 14.2517C18.6046 14.1048 18.4833 13.9291 18.3999 13.7348C18.3164 13.5406 18.2725 13.3316 18.2707 13.1202C18.2688 12.9087 18.3091 12.699 18.3892 12.5033C18.4692 12.3076 18.5875 12.1298 18.737 11.9803C18.8865 11.8308 19.0643 11.7125 19.26 11.6325C19.4557 11.5524 19.6654 11.5121 19.8769 11.5139C20.0883 11.5158 20.2973 11.5597 20.4915 11.6432C20.6858 11.7266 20.8615 11.8479 21.0084 12L22.1343 13.1259C23.3289 14.3205 24 15.9407 24 17.6301C24 19.3195 23.3289 20.9397 22.1343 22.1343C20.9397 23.3289 19.3195 24 17.6301 24C15.9407 24 14.3205 23.3289 13.1259 22.1343L8.62407 17.6309C8.03255 17.0394 7.56333 16.3372 7.2432 15.5644C6.92307 14.7915 6.7583 13.9632 6.7583 13.1267C6.7583 12.2902 6.92307 11.4618 7.2432 10.689C7.56333 9.91618 8.03255 9.21397 8.62407 8.62248C8.9227 8.32394 9.32766 8.15623 9.74992 8.15623C10.1722 8.15623 10.5771 8.32394 10.8758 8.62248H10.8742Z" fill="black"/>
</svg>
