<svg width="30" height="30" viewBox="0 0 30 30" fill="none" xmlns="http://www.w3.org/2000/svg">
<path fill-rule="evenodd" clip-rule="evenodd" d="M27 15C27 21.6274 21.6274 27 15 27C8.37258 27 3 21.6274 3 15C3 8.37258 8.37258 3 15 3C21.6274 3 27 8.37258 27 15ZM15.43 11.8589C14.2628 12.3444 11.9301 13.3492 8.43189 14.8733C7.86383 15.0992 7.56626 15.3202 7.53917 15.5363C7.49339 15.9015 7.95071 16.0453 8.57348 16.2411C8.65819 16.2678 8.74596 16.2954 8.83594 16.3246C9.44864 16.5238 10.2728 16.7568 10.7013 16.766C11.0899 16.7744 11.5237 16.6142 12.0026 16.2853C15.2712 14.079 16.9584 12.9638 17.0643 12.9398C17.139 12.9228 17.2426 12.9015 17.3128 12.9638C17.3829 13.0262 17.376 13.1443 17.3686 13.176C17.3233 13.3691 15.5281 15.0381 14.5991 15.9018C14.3095 16.171 14.1041 16.362 14.0621 16.4056C13.968 16.5033 13.8721 16.5958 13.78 16.6846C13.2108 17.2333 12.7839 17.6448 13.8036 18.3168C14.2936 18.6397 14.6857 18.9067 15.0769 19.1731C15.5042 19.4641 15.9303 19.7543 16.4816 20.1157C16.6221 20.2077 16.7562 20.3034 16.8869 20.3965C17.3841 20.751 17.8307 21.0694 18.3826 21.0186C18.7032 20.9891 19.0345 20.6876 19.2027 19.7884C19.6002 17.6631 20.3816 13.0585 20.5622 11.161C20.578 10.9947 20.5581 10.782 20.5422 10.6886C20.5262 10.5952 20.4928 10.4621 20.3714 10.3636C20.2276 10.2469 20.0056 10.2223 19.9064 10.2241C19.455 10.232 18.7626 10.4728 15.43 11.8589Z" fill="black"/>
</svg>
