<svg width="30" height="30" viewBox="0 0 30 30" fill="none" xmlns="http://www.w3.org/2000/svg">
<path fill-rule="evenodd" clip-rule="evenodd" d="M6.50042 15.4995C6.50042 13.8184 6.99893 12.1751 7.93293 10.7774C8.86692 9.37962 10.1944 8.29021 11.7476 7.64689C13.3008 7.00358 15.0098 6.83526 16.6587 7.16322C18.3075 7.49118 19.8221 8.30068 21.0108 9.48937C22.1996 10.6781 23.0091 12.1925 23.3371 13.8413C23.6651 15.4901 23.4967 17.199 22.8534 18.7521C22.21 20.3052 21.1206 21.6327 19.7228 22.5666C18.3249 23.5006 16.6816 23.9991 15.0004 23.9991C13.3923 24.0019 11.8166 23.5461 10.4584 22.6851C10.3376 22.6087 10.2018 22.5591 10.0602 22.5396C9.91855 22.5201 9.77439 22.5312 9.63742 22.5721L6.75742 23.4311L7.84242 20.8942C7.90548 20.7465 7.93205 20.5858 7.91986 20.4257C7.90768 20.2655 7.8571 20.1107 7.77242 19.9743C6.93835 18.6309 6.49767 17.0807 6.50042 15.4995ZM15.0004 5C9.20142 5 4.50042 9.70077 4.50042 15.4995C4.50042 17.3374 4.97342 19.0673 5.80542 20.5722L4.08042 24.606C4.00576 24.7808 3.98243 24.9732 4.01317 25.1607C4.04391 25.3482 4.12745 25.5231 4.25399 25.6648C4.38054 25.8066 4.54486 25.9093 4.7277 25.9611C4.91055 26.0128 5.10435 26.0114 5.28642 25.957L9.78642 24.615C11.3734 25.5244 13.1713 26.0016 15.0004 25.999C20.7994 25.999 25.5004 21.2982 25.5004 15.4995C25.5004 9.70077 20.7994 5 15.0004 5ZM17.2934 17.6814L15.9784 18.6073C15.2539 18.1905 14.5886 17.6783 14.0004 17.0844C13.369 16.4538 12.823 15.7431 12.3764 14.9705L13.2114 14.2615C13.3854 14.1139 13.5037 13.9113 13.5466 13.6872C13.5895 13.4631 13.5545 13.2311 13.4474 13.0296L12.3834 11.0297C12.3126 10.8969 12.2127 10.7818 12.0912 10.6929C11.9697 10.6041 11.8297 10.5438 11.6817 10.5166C11.5337 10.4894 11.3814 10.496 11.2362 10.5358C11.0911 10.5757 10.9568 10.6477 10.8434 10.7467L10.5274 11.0217C9.76842 11.6837 9.31942 12.7716 9.69142 13.8736C10.2899 15.6166 11.2803 17.1991 12.5864 18.4993C14.3994 20.3122 16.2414 21.0262 17.3194 21.3042C18.1874 21.5272 19.0084 21.2282 19.5874 20.7562L20.1784 20.2742C20.303 20.1726 20.4013 20.0425 20.4649 19.8948C20.5285 19.7472 20.5555 19.5864 20.5438 19.426C20.532 19.2657 20.4817 19.1106 20.3972 18.9738C20.3127 18.837 20.1965 18.7226 20.0584 18.6403L18.3804 17.6404C18.2145 17.5414 18.0234 17.4926 17.8303 17.4998C17.6373 17.5071 17.4504 17.5702 17.2924 17.6814H17.2934Z" fill="black"/>
</svg>
