<svg width="34" height="34" viewBox="0 0 34 34" fill="none" xmlns="http://www.w3.org/2000/svg">
<g clip-path="url(#clip0_34_19)">
<path d="M34 17C34 7.61116 26.3888 0 17 0C7.61116 0 0 7.61116 0 17C0 26.3888 7.61116 34 17 34C26.3888 34 34 26.3888 34 17Z" fill="white"/>
<path fill-rule="evenodd" clip-rule="evenodd" d="M17.3343 23.1157C17.3343 23.1157 17.7168 23.0732 17.9137 22.8692C18.0936 22.6794 18.088 22.3238 18.088 22.3238C18.088 22.3238 18.0625 20.6606 18.853 20.4156C19.6335 20.1747 20.6351 22.0235 21.6962 22.7346C22.4995 23.273 23.1086 23.154 23.1086 23.154L25.9462 23.1157C25.9462 23.1157 27.4309 23.0265 26.7268 21.8875C26.6701 21.794 26.316 21.0446 24.6174 19.5046C22.838 17.8925 23.076 18.1531 25.2195 15.3651C26.5242 13.6666 27.047 12.631 26.884 12.1861C26.7282 11.764 25.7677 11.8745 25.7677 11.8745L22.5731 11.8943C22.5731 11.8943 22.3365 11.8631 22.1609 11.9651C21.988 12.0657 21.8775 12.2995 21.8775 12.2995C21.8775 12.2995 21.3718 13.6141 20.6975 14.7319C19.2751 17.0892 18.707 17.2125 18.4733 17.068C17.9335 16.7266 18.0681 15.6966 18.0681 14.9656C18.0681 12.6806 18.4223 11.7271 17.3768 11.4806C17.0283 11.3985 16.7733 11.3446 15.885 11.3361C14.7446 11.3248 13.7799 11.339 13.2345 11.6011C12.8704 11.7753 12.5899 12.1621 12.7613 12.1833C12.9724 12.2116 13.4498 12.3108 13.7034 12.6466C14.0306 13.0815 14.0193 14.0576 14.0193 14.0576C14.0193 14.0576 14.2077 16.7478 13.5801 17.0821C13.1495 17.3102 12.5587 16.8427 11.2908 14.7036C10.6391 13.6085 10.1504 12.3958 10.1504 12.3958C10.1504 12.3958 10.0555 12.1691 9.88687 12.0487C9.68145 11.9028 9.39528 11.8575 9.39528 11.8575L6.36078 11.8745C6.36078 11.8745 5.90462 11.8886 5.73745 12.0813C5.58728 12.2527 5.7247 12.6083 5.7247 12.6083C5.7247 12.6083 8.10045 18.037 10.7921 20.7726C13.2614 23.2801 16.065 23.1157 16.065 23.1157H17.3357H17.3343Z" fill="#222222"/>
</g>
<defs>
<clipPath id="clip0_34_19">
<rect width="34" height="34" fill="white"/>
</clipPath>
</defs>
</svg>
